<?xml version="1.0" encoding="iso-8859-1"?>
<!-- Generator: Adobe Illustrator 19.0.0, SVG Export Plug-In . SVG Version: 6.00 Build 0)  -->
<svg version="1.1" id="Layer_1" xmlns="http://www.w3.org/2000/svg" xmlns:xlink="http://www.w3.org/1999/xlink" x="0px" y="0px"
	 viewBox="0 0 490.1 490.1" style="enable-background:new 0 0 490.1 490.1;" xml:space="preserve">
<g>
	<g>
		<g>
			<path d="M321.2,244.637h0.223C322.946,243.479,324.781,242.008,321.2,244.637z"/>
			<path d="M469.2,244.637H321.423c-1.199,0.912-2.205,1.63-0.223,0c84.1-68.9,77.3-175.8,15.9-238.2c-8.3-7.3-21.8-7.3-29.1,0
				l-83.2,83.2l-43.8-43.7c-8.3-8.3-20.8-8.3-29.1,0c-8.3,8.3-8.3,20.8,0,29.1l43.7,43.7l-83.2,83.3c-8.3,8.3-8.9,21.4,0,29.1
				c5.7,5,11.4,9.5,17,13.5H20.8c-11.4,0-20.8,9.4-20.8,20.8v128c0,11.4,9.4,20.8,20.8,20.8h32.3c9.2,42.6,47.3,74.9,92.6,74.9
				c46.1,0,83.6-32.3,92.6-74.9h12.5c9.2,42.6,47.3,74.9,92.6,74.9c45.3,0,83.4-32.3,92.6-74.9h32.3c11.4,0,20.8-9.4,21.8-19.8v-129
				C490,254.037,480.6,244.637,469.2,244.637z M320.4,51.138c32.3,45.8,28.1,110.3-13.5,151.9c-21.8,21.8-77.4,57-150.8,12.5
				L320.4,51.138z M145.6,447.538c-30.2,0-54.1-23.9-54.1-54.1s23.9-54.1,54.1-54.1c30.2,0,54.1,23.9,54.1,54.1
				S175.8,447.538,145.6,447.538z M343.3,447.538c-30.2,0-54.1-23.9-54.1-54.1s23.9-54.1,54.1-54.1c29.1,0,54.1,23.9,54.1,54.1
				S373.5,447.538,343.3,447.538z M435.4,372.638c-9.9-41.6-47.6-72.8-92.1-72.8s-82.2,31.2-92.1,72.8h-13.5
				c-9.9-41.6-47.6-72.8-92.1-72.8s-82.1,31.2-92.1,72.8h-13v-87.4h407.8v87.4H435.4z"/>
		</g>
	</g>
</g>
<g>
</g>
<g>
</g>
<g>
</g>
<g>
</g>
<g>
</g>
<g>
</g>
<g>
</g>
<g>
</g>
<g>
</g>
<g>
</g>
<g>
</g>
<g>
</g>
<g>
</g>
<g>
</g>
<g>
</g>
</svg>
